{"title":"People.I.Know.2002.BDRip.XviD.AC3.-HQCLUB","uid":12314969,"size":1896516982,"categoryP":"video","categoryS":"movies","magnet":"?xt=urn:btih:b3cf7efde3193243c1e19092274f678664f37aeb&amp;dn=People.I.Know.2002.BDRip.XviD.AC3.-HQCLUB&amp;tr=udp%3A%2F%2Ftracker.openbittorrent.com%3A80&amp;tr=udp%3A%2F%2Fopen.demonii.com%3A1337&amp;tr=udp%3A%2F%2Ftracker.coppersurfer.tk%3A6969&amp;tr=udp%3A%2F%2Fexodus.desync.com%3A6969","seeders":0,"leechers":0,"uploader":"nicukent","files":3,"time":1440975757,"description":" &lt;a href=&quot;http://i.imgur.com/MYIwuFr.jpg&quot; rel=&quot;nofollow&quot; target=&quot;_NEW&quot;&gt;http://i.imgur.com/MYIwuFr.jpg&lt;/a&gt;\n\n\n  General\n     Complete name : People.I.Know.2002.BDRip.XviD.AC3.-HQCLUB.avi\n     Format : AVI\n     Format/Info : Audio Video Interleave\n     File size : 1.73 GiB\n     Duration : 1h 39mn\n     Overall bit rate : 2 487 Kbps\n     Source: BD-Remux / 1080p\n\n  Video\n     Format : MPEG-4 Visual\n     Format profile : Streaming Video@L1\n     Format settings, BVOP : Yes\n     Format settings, QPel : No\n     Format settings, GMC : No warppoints\n     Format settings, Matrix : Custom\n     Codec ID : XVID\n     Codec ID/Hint : XviD\n     Duration : 1h 39mn\n     Bit rate : 2 030 Kbps\n     Width : 704 pixels\n     Height : 400 pixels\n     Display aspect ratio : 16/9\n     Frame rate : 23.976 fps\n     Resolution : 24 bits\n     Colorimetry : 4:2:0\n     Scan type : Progressive\n     Bits/(Pixel*Frame) : 0.301\n     Stream size : 1.41 GiB (82%)\n     Writing library : XviD 65\n\n  Audio\n     Format : AC-3\n     Format/Info : Audio Coding 3\n     Codec ID : 2000\n     Duration : 1h 39mn\n     Bit rate mode : Constant\n     Bit rate : 448 Kbps\n     Channel(s) : 6 channels\n     Channel positions : Front: L C R, Surround: L R, LFE\n     Sampling rate : 48.0 KHz\n     Stream size : 319 MiB (18%)\n     Alignment : Split accross interleaves\n     Interleave, duration : 42 ms (1.00 video frame)\n     Interleave, preload duration : 500 ms\n\n\nFor more visit...: http://www.scenexpress.org\n\n &lt;a href=&quot;\nhttp://someimage.com/w9DiqUs&quot; rel=&quot;nofollow&quot; target=&quot;_NEW&quot;&gt;\nhttp://someimage.com/w9DiqUs&lt;/a&gt; &lt;a href=&quot;\nhttp://someimage.com/QiZv63f&quot; rel=&quot;nofollow&quot; target=&quot;_NEW&quot;&gt;\nhttp://someimage.com/QiZv63f&lt;/a&gt; &lt;a href=&quot;\nhttp://someimage.com/kWnX8M1&quot; rel=&quot;nofollow&quot; target=&quot;_NEW&quot;&gt;\nhttp://someimage.com/kWnX8M1&lt;/a&gt; &lt;a href=&quot;\nhttp://someimage.com/smWhltG&quot; rel=&quot;nofollow&quot; target=&quot;_NEW&quot;&gt;\nhttp://someimage.com/smWhltG&lt;/a&gt; &lt;a href=&quot;\nhttp://someimage.com/PSZtCsE&quot; rel=&quot;nofollow&quot; target=&quot;_NEW&quot;&gt;\nhttp://someimage.com/PSZtCsE&lt;/a&gt; &lt;a href=&quot;\nhttp://someimage.com/a3zVpOs&quot; rel=&quot;nofollow&quot; target=&quot;_NEW&quot;&gt;\nhttp://someimage.com/a3zVpOs&lt;/a&gt;","torrent":{"xt":"urn:btih:b3cf7efde3193243c1e19092274f678664f37aeb","amp;dn":"People.I.Know.2002.BDRip.XviD.AC3.-HQCLUB","amp;tr":["udp%3A%2F%2Ftracker.openbittorrent.com%3A80","udp%3A%2F%2Fopen.demonii.com%3A1337","udp%3A%2F%2Ftracker.coppersurfer.tk%3A6969","udp%3A%2F%2Fexodus.desync.com%3A6969"],"infoHash":"b3cf7efde3193243c1e19092274f678664f37aeb","infoHashBuffer":{"type":"Buffer","data":[179,207,126,253,227,25,50,67,193,225,144,146,39,79,103,134,100,243,122,235]},"announce":[],"urlList":[]}}